<svg xmlns="http://www.w3.org/2000/svg" xmlns:xlink="http://www.w3.org/1999/xlink" viewBox="0 0 841.9 595.3">
    <svg id='search' viewBox="0 0 24 24">
        <path fill='#000' d="M15.5 14H14.71L14.43 13.73C15.41 12.59 16 11.11 16 9.5C16 5.91 13.09 3 9.5 3C5.91 3 3 5.91 3 9.5C3 13.09 5.91 16 9.5 16C11.11 16 12.59 15.41 13.73 14.43L14 14.71V15.5L19 20.49L20.49 19L15.5 14ZM9.5 14C7.01 14 5 11.99 5 9.5C5 7.01 7.01 5 9.5 5C11.99 5 14 7.01 14 9.5C14 11.99 11.99 14 9.5 14Z"></path>
    </svg>

    <svg viewBox="0 0 40 40" id="auth">
        <path d="M20 4C11.168 4 4 11.168 4 20C4 28.832 11.168 36 20 36C28.832 36 36 28.832 36 20C36 11.168 28.832 4 20 4ZM20 8.8C22.656 8.8 24.8 10.944 24.8 13.6C24.8 16.256 22.656 18.4 20 18.4C17.344 18.4 15.2 16.256 15.2 13.6C15.2 10.944 17.344 8.8 20 8.8ZM20 31.52C16 31.52 12.464 29.472 10.4 26.368C10.448 23.184 16.8 21.44 20 21.44C23.184 21.44 29.552 23.184 29.6 26.368C27.536 29.472 24 31.52 20 31.52Z"></path>
    </svg>

    <svg viewBox="0 0 8 12" id="arrow-right">
        <path d="M0.590088 10.59L5.17009 6L0.590088 1.41L2.00009 0L8.00009 6L2.00009 12L0.590088 10.59Z"></path>
    </svg>

    <svg viewBox="0 0 24 24" id="heart-active">
        <path d="M12 21.35L10.55 20.03C5.4 15.36 2 12.28 2 8.5C2 5.42 4.42 3 7.5 3C9.24 3 10.91 3.81 12 5.09C13.09 3.81 14.76 3 16.5 3C19.58 3 22 5.42 22 8.5C22 12.28 18.6 15.36 13.45 20.04L12 21.35Z"></path>
    </svg>

    <svg viewBox="0 0 18 18" id="basket">
        <path d="M8.93651 7.09524H10.5238V4.80952H12.9048V3.28571H10.5238V1H8.93651V3.28571H6.55556V4.80952H8.93651V7.09524ZM5.7619 13.9524C4.88889 13.9524 4.18254 14.6381 4.18254 15.4762C4.18254 16.3143 4.88889 17 5.7619 17C6.63492 17 7.34921 16.3143 7.34921 15.4762C7.34921 14.6381 6.63492 13.9524 5.7619 13.9524ZM13.6984 13.9524C12.8254 13.9524 12.119 14.6381 12.119 15.4762C12.119 16.3143 12.8254 17 13.6984 17C14.5714 17 15.2857 16.3143 15.2857 15.4762C15.2857 14.6381 14.5714 13.9524 13.6984 13.9524ZM5.89683 11.4762L5.92063 11.3848L6.63492 10.1429H12.5476C13.1429 10.1429 13.6667 9.83048 13.9365 9.3581L17 4.01714L15.619 3.28571H15.6111L14.7381 4.80952L12.5476 8.61905H6.97619L6.87302 8.41333L5.09524 4.80952L4.34127 3.28571L3.59524 1.7619H1V3.28571H2.5873L5.44444 9.06857L4.37302 10.9352C4.24603 11.1486 4.1746 11.4 4.1746 11.6667C4.1746 12.5048 4.88889 13.1905 5.7619 13.1905H15.2857V11.6667H6.09524C5.99206 11.6667 5.89683 11.5829 5.89683 11.4762Z"></path>
    </svg>
</svg>